<?xml version="1.0" encoding="utf-8"?>
<!-- Generator: Adobe Illustrator 26.5.0, SVG Export Plug-In . SVG Version: 6.00 Build 0)  -->
<svg version="1.1" id="Layer_1" xmlns="http://www.w3.org/2000/svg" xmlns:xlink="http://www.w3.org/1999/xlink" x="0px" y="0px"
	 viewBox="0 0 512 512" style="enable-background:new 0 0 512 512;" xml:space="preserve">
<style type="text/css">
	.st0{display:none;}
	.st1{fill:#FFFFFF;}
	.st2{fill:#A5CCED;}
</style>
<rect x="-0.2" y="0.1" class="st0" width="512.6" height="512.1"/>
<g>
	<path class="st1" d="M77.6,174.3c3.4-9.8,7.2-21.9,11.1-34.3c-9-16.8-17.7-32.5-23.1-41.2c-0.8-1.4-3,1.1-4,0.1
		c-2-2.5-5.2-13.1-4.4-14.5c2-3.3,4.9-6,8.3-1.9c4.4,5.2,18.9,30,27.1,44.5c9.3-29.2,18.6-56.7,25.2-57.3c2.4-0.2,8.4,1.1,8.2,3.8
		C113.2,90,88.9,186.2,83.3,198.8c-2.1,0.3-12.3-2.4-12.2-5c0.2-5.7,0-13.2,1.4-17.4C73.6,172.8,77.1,175.4,77.6,174.3z"/>
	<path class="st1" d="M127.5,96.3c1.9,0.8,3.5,2,4,3.2c0,0,1.8-1.9,4.8-2.2c14.9-1.4,18.6,12.1,19.6,26.9
		c0.9,15.7-1.3,49.9-19.6,51.7c-14.9,1.4-22.1-17.7-23.2-33.3C112.1,124.1,118.8,99.8,127.5,96.3z M132.8,166.2
		c13.2-1.2,14-39.5,13.5-47.9c-0.2-4.1-0.3-14.3-6-13.7c-8.2,0.8-12.6,26.2-13.2,34.5c-0.1,0.6-3.3-0.3-4.2-0.9c0,0-0.5,4.1-0.1,9.3
		C123.3,158.2,127,166.7,132.8,166.2z"/>
	<path class="st1" d="M187.3,146.6c-1.2,6.7-4.2,22.2-10.7,22.8c-6.2,0.6-17.1-8.1-18-17.8c-1.6-16.6,3.9-53,9.1-53.5
		c1.8-0.2,5.8,1.3,7.3,3.2c-3.5,18.1-5.6,38.3-3.9,55.9l2.1,0.5c8.7-17.6,14-47.1,14.3-62.3c0-1.3,1-1.8,2.3-1.9
		c4.1-0.4,9.6,2.1,9.9,4.5c0.5,5.2-3.4,36.7-2.4,47.3c0.3,3.3,2.2,10.8,7,10.4c6.1-0.6,7.4-13.9,7.4-13.9c1.3-0.1,3.8-0.2,4.2,3.2
		c0.5,5.4-5.6,19.1-13.7,19.9c-10.8,1-13.6-10.3-13.9-18.4L187.3,146.6z"/>
	<path class="st1" d="M222.4,121c2.8-9.4,4.5-22.5,5.8-29.7c0.7-3.5,4.3-5,8.5-4.4c3,0.4,4.7,1.7,5,4.5c0.5,5.2-4.8,14.2-3.8,24.6
		c0.2,2,2.4,4.1,4.7,3.9c5.7-0.5,6.6-9.1,7.4-9.1c1-0.1,2.4,0.6,2.4,1.6c0.2,5-3.5,13.5-10.8,14.2c-8.4,0.8-11-4.5-12.2-10.7
		c-1.8,7.9-7.1,24.9-5.2,48.2c-3.1,2.3-12.7-0.8-13-3.9c-0.4-4.1,0.7-9.5-1.1-40.4c-0.9-14.1-1.8-27.7,3.1-28.2
		c3.7-0.3,8.4,2.5,8.4,2.5c0.3,7.7-0.6,18.4-0.2,26.8L222.4,121z"/>
	<path class="st2" d="M277.9,144.9c-0.8-22.1,1.4-68.6,4.1-93.3c0.2-1.2,1.3-1.4,2-1.5c3.4-0.3,9.9,2.9,9.7,5.5
		c-2.3,30.4-4.3,63.2-3.3,94.3c0.1,3.9,0.2,7.7,0.4,11.6c-1.3,2.6-10.9-1.6-11.8-3.9C277.9,155.8,278.1,149.5,277.9,144.9z"/>
	<path class="st2" d="M302.2,87c0.3-1.6,1.4-2,2.4-2.1c-0.3,0,11.7-0.7,10.9,4.3c-2.8,16-6.7,44.1-5.5,55.2c0.5,5.2,2.7,7.6,5,7.4
		c8.8-0.8,9.9-16.5,9.8-22.2c0,0,5.1-1.9,5.7,3.8c0.8,8.9-2.7,25.7-18.5,27.2c-8.1,0.8-12.7-4.7-13.8-15.9
		C296.7,129.7,300.3,97.3,302.2,87z M302.6,65.2c-0.4-4,0.3-16.1,7.4-16.7c3.5-0.3,5.8,0.3,5.2,4.9c2.2,0.9,4.5,2.3,4.9,6.1
		c0.4,4.5-1.8,13.2-10.7,14C307.1,73.8,303.2,71.6,302.6,65.2z"/>
	<path class="st2" d="M339.9,132.9c0.6-8.5,7.1-64.9,14.4-65.6c1.8-0.2,6,0.9,6.1,2.7c0.1,1.4-2.6,7.8-3.2,10.5
		c-5.4,23.3-11.2,54.3-9,78c0,0-1.1,2.1-3.8,2.4c-7.7,0.7-12.5-3.7-13.3-10.6c-0.6-5-4.5-17.3-6.1-34.5c-1.4-14.9-2.5-35.8-2.5-35.8
		c0.2-1.4,1-2.7,3-2.9c2.1-0.2,9.3,1.1,9.5,3.7c-0.8,12.7,0.6,30.7,0.9,34.3c0.8,8.8,2.5,15.7,2.8,18.1L339.9,132.9z"/>
	<path class="st2" d="M375,71.2c5.4-0.5,12,3.2,13.3,16.2c1.7,18.2-1.7,35.1-12.9,36.1c-6.1,0.6-8.8-5.2-8.8-5.2s-1.8,7.8-0.8,19.3
		c0.6,6.7,3.6,11.4,10.9,10.7c10.9-1,18.1-19.6,17.2-29c0,0-0.1-1.6,1.8-1.7c2.3-0.2,4.4,2.5,4.8,6.4c1.2,12.3-4.5,33.9-20.3,35.4
		c-10.9,1-22.1-8.1-23.8-25.8C354.2,110,362.5,72.4,375,71.2z M371.6,115.4c5-0.5,7.7-16.9,6.5-30c-0.6-6-1.6-6.6-2.3-6.5
		c-0.6,0.1-1.2,0.7-1.9,2.8c-2.7,8-5.6,20-6.1,30.5C367.7,112.1,368.8,115.6,371.6,115.4z"/>
	<path class="st1" d="M80.8,248.4c-2-1.7-4.5-5.4-4.8-8.1c-0.3-3-0.5-2.1,10.1-5.5c0.8-12.5,1.1-31.3,1.6-38.2c0,0,2.1-0.8,4.3-1
		c3.1-0.3,7.2,0.3,7.7,5.3c0.7,7-1.1,20.4-2.4,31.1c9.5-2.6,18.2-4.7,22.1-5.1s7.1,4.5,7.4,7.6c0,0,0.2,1.8-2.5,2.4
		c-6.3,1.3-16.5,3.8-28.2,7.2l-0.1,0.7c10.4,9.6,14.9,17.2,16.7,35.6c2.8,29.5-12.3,48.4-19.3,49c-7,0.7-9.4-5.7-10.3-14.9
		c-0.4-3.8-0.5-8.3-0.5-12.8c0-23.2,2.5-39.3,2.6-49.8L80.8,248.4z M94.4,313.5c0.3,3.4,1.1,5.8,3,5.6c2-0.2,10.3-10.4,8.2-33.3
		c-0.9-9.5-2.9-22.1-10.1-29.5c-0.1,8.5-1,27.1-1.2,45.5C94.2,305.5,94.1,310,94.4,313.5z"/>
	<path class="st1" d="M135.5,226.9c5.4-0.5,12,3.2,13.3,16.2c1.7,18.2-1.7,35.1-12.9,36.1c-6.1,0.6-8.8-5.2-8.8-5.2
		s-2.1,5.5-1.3,13.7c0.6,6.7,3.6,11.4,10.9,10.7c10.9-1,17.6-12,16.1-41.9c0,0,0.3-1.7,2.4-2.4c2.8-17.9,9.2-34.4,17.4-35.1
		c5.4-0.5,12,3.2,13.3,16.2c1.7,18.2-1.7,35.1-12.9,36.1c-6.1,0.6-9.2-3.6-9.2-3.6s-1.4,6.1-0.3,17.6c0.6,6.7,3.6,11.4,10.9,10.7
		c10.9-1,18-19.6,17.2-29c0,0-0.1-1.6,1.8-1.7c2.3-0.2,4.4,2.4,4.8,6.4c1.2,12.3-4.5,33.9-20.3,35.4c-8.4,0.8-16.7-4.3-21.1-14.5
		c-2.2,8.4-7.1,15.8-16.5,16.7c-10.9,1-22.1-8.1-23.8-25.8C114.1,260.1,123,228.1,135.5,226.9z M132.6,270.3c5-0.5,7.2-16.1,6-29.2
		c-0.6-6-1.6-6.6-2.3-6.5c-0.6,0.1-1.2,0.7-1.9,2.8c-2.7,8-5.1,19.2-5.6,29.7C128.7,267.1,129.7,270.5,132.6,270.3z M169.1,263.2
		c5-0.5,7.7-16.9,6.5-30c-0.6-6-1.6-6.6-2.3-6.5c-0.6,0.1-1.2,0.7-1.9,2.8c-2.7,8-6,21.6-6.6,32.1
		C164.8,261.6,166.3,263.5,169.1,263.2z"/>
	<path class="st1" d="M225,283.9c-1.4,5.3-5.8,15.4-12.2,16c-12.8,1.2-18.5-14.3-19.7-26.5c-1.9-20,3.7-53.3,22.9-55.1
		c4.4-0.4,8.3,2.7,8.3,2.7c0.9-11.3,1.3-28.3,1.5-33.9c0-2.7,1.4-3,2-3.1c5-0.5,10.2,0.9,10,3.9c-1.1,11.5-4.6,82.2-3.9,89.1
		c0.4,4.7,2.3,6.6,5.3,6.4c4.7-0.4,6.8-9.9,7-18.5c0,0,4.1-0.8,4.5,3.4c0.7,7.5-3.6,24.1-14.4,25.1c-6.1,0.6-10.2-3.9-10.8-9.6
		L225,283.9z M208.6,290c7.4-0.7,15.4-35.7,14.8-42c-1.4-0.2-2.9-0.4-4.5-2.4c0.8-3.9,2.6-10.8,2.1-15.5c-0.2-2.3-0.9-4.9-3-4.7
		c-10.2,1-15.2,35.6-13.4,55.6C204.8,283.9,205.7,290.3,208.6,290z"/>
	<path class="st1" d="M250.2,183.5c3.5-0.3,9.8,2.4,10,3.9c-1,6.4-5.3,32-5.9,40.9c3.4-9.5,8.4-14.1,12.4-14.5
		c9.1-0.9,18.1,11.6,19.1,21.8c1.1,11.4-0.7,55-18.4,56.7c-14.3,1.3-23-8.6-24.8-27.4C240.4,242.5,247.6,183.7,250.2,183.5z
		 M253.7,255.7c0.1,0-0.8,6.4,0.1,16.6c0.5,5.5,2.9,10,7.2,9.6c16-1.5,13.9-49.5,13.8-51.3c-0.4-4.3-0.7-8.7-4.5-8.3
		c-8.7,0.8-13.4,25-14.5,33.3c0,0.1-0.1,0.2-0.3,0.2L253.7,255.7z"/>
	<path class="st1" d="M325.1,275.6c-1.8,5.2-7.1,11.1-14.1,11.8c-10.5,1-19.5-9-21.1-26.4c-2.4-25.7,7-52.3,24-53.9
		c9.6-0.9,14.5,4.9,14.9,9.2c0.1,0.7,0,1.6,0,1.6c1.3,0.3,6.9-0.1,6.3,3.3c-2.9,16.3-5.1,31.4-4,42.6c0.6,6.5,2.2,10.8,7,10.4
		c7.4-0.7,8.5-10.1,8.7-18.7c0,0,4.1-0.8,4.5,3.4c0.7,7.5-3.6,24.1-14.4,25.1c-6.5,0.6-10.5-5-11.1-8.4L325.1,275.6z M308.7,277.9
		c8.4-0.8,12.8-35.4,12.4-40.5c0,0-4.6-0.4-6.8-2.5c2.6-4.4,4-9.5,3.5-14.6c-0.1-1.3-0.4-4.7-3.1-4.4c-10.4,1-13.5,35.5-12.1,50.4
		C303.3,274.9,305.1,278.2,308.7,277.9z"/>
	<path class="st1" d="M366,206.2c7.2-0.7,14.8,5.5,15.6,13.1c1.3,13.3-3.5,20.1-8.7,20.6c-4,0.4-6.5-2-6.9-6.2l-0.1-0.9
		c0,0,4.3-5.7,3.4-15.1c-0.2-2.1-1.2-3.3-2.9-3.2c-7.4,0.7-12.2,23.6-10.2,45.3c1.2,13.2,5.6,16.9,11.6,16.4
		c11.6-1.1,18.3-20,18.3-28.9c0,0,1.4-0.3,2.3-0.4c1.7-0.2,4.5,0.9,5.1,7.5c0.5,5-2.8,29-22.3,30.9c-14.5,1.4-25.4-10.3-27.2-28.9
		C342.4,238.8,348,207.9,366,206.2z"/>
	<path class="st1" d="M387.5,253.8c-1.5-21.8,1.6-60.8,2.5-81.2c0.1-3.4,1.5-4,2.2-4.1c2.7-0.3,5.9,0,8.4,1.2
		c2.4,1.1,2.1,2.2,1.9,4.5c-1.4,15.9-3,44.1-3.6,52.4c5.8-8.6,20.7-28.3,30.9-29.2c2.4-0.2,4.6,1.4,4.1,4.2
		c-7.7,7.6-21.7,21.8-28.8,33.5c11.3,12.5,22.3,22.9,36,40.1c1.8,2.3,1.5,3.9,0.4,4.7c-1.6,1.3-4,2.1-6.2,3c-1,0.4-2.7,1.5-4.7-1
		c-11.8-15.4-25.2-30.3-31.8-36.5c0,9.3,0.9,20.4,2.4,30c0.5,3.5-0.6,4.8-1.6,4.7c-2.2-0.2-5.6-0.2-6.5-0.4
		c-2.8-0.7-3.1-1.3-3.7-4.4C389,271.6,388.4,266.2,387.5,253.8z"/>
	<path class="st1" d="M113.8,358.8c7.2-0.7,14.8,5.5,15.6,13.1c1.3,13.3-3.5,20.1-8.7,20.6c-4,0.4-6.5-2-6.9-6.2l-0.1-0.9
		c0,0,4.3-5.7,3.4-15.1c-0.2-2.1-1.2-3.3-2.9-3.2c-7.4,0.7-12.2,23.6-10.2,45.3c1.2,13.2,5.6,16.9,11.6,16.4
		c11.6-1.1,18.3-20,18.3-28.9c0,0,1.4-0.3,2.3-0.4c1.7-0.2,4.5,0.9,5.1,7.5c0.5,5-2.8,29-22.3,30.9c-14.5,1.4-25.5-10.3-27.2-28.9
		C90.3,391.3,95.8,360.5,113.8,358.8z"/>
	<path class="st1" d="M162.5,376.9c-2.3,3.9-11.2,35-10.7,53.5c0,0-0.4,1.3-3.4,1.6c-5.1,0.5-10.8-4.9-11-7.8
		c-1.5-15.5-2.7-96.8,2.1-103.4c1.9-2.5,11.3-0.5,11.6,3.5c0.8,8.2-1.1,14.1-1.9,21.9c-0.9,8.8-2.2,46.2-1.6,52.5l1.3,0.2
		c2.4-9.5,10.7-45.5,17.7-46.2c3.7-0.3,11.3,1.9,11.6,5.1c0.7,7.2-4,33.3-2.3,51.6c0.5,5.7,2.7,10.1,7.2,9.6c4.4-0.4,7.6-8.9,9-16.5
		c0,0,4.1-0.8,4.5,4.2c0.9,9.5-7.4,20-16.9,20.9c-11.1,1-16.1-12.7-17-22.2c-0.9-9.2,0.7-24.5,1.5-28.5L162.5,376.9z"/>
	<path class="st1" d="M225.1,413.8c-1.8,5.2-7.1,11.1-14.1,11.8c-10.5,1-19.5-9-21.1-26.4c-2.4-25.7,7-52.3,24-53.9
		c9.6-0.9,14.5,4.9,14.9,9.2c0.1,0.7,0,1.6,0,1.6c1.3,0.3,6.9-0.1,6.3,3.3c-2.9,16.3-5.1,31.4-4,42.6c0.6,6.5,2.2,10.8,7,10.4
		c7.4-0.7,8.5-10.1,8.7-18.7c0,0,4.1-0.8,4.5,3.4c0.7,7.5-3.6,24.1-14.4,25.1c-6.5,0.6-10.5-5-11.1-8.4L225.1,413.8z M208.7,416.1
		c8.4-0.8,12.8-35.4,12.4-40.5c0,0-4.6-0.4-6.8-2.5c2.6-4.4,4-9.5,3.5-14.6c-0.1-1.3-0.4-4.7-3.1-4.4c-10.4,1-13.5,35.5-12.1,50.4
		C203.3,413.2,205,416.4,208.7,416.1z"/>
	<path class="st1" d="M314.7,365.6c-4.6,13.2-9.9,38-8.5,51.3c0,0-1.6,2.3-4.6,2.6c-5,0.5-7.5-3.9-8.9-10.6c-2,5-5.1,9.5-9.8,9.9
		c-9.6,0.9-13.3-9.1-14.4-20.5c-0.6-6.1,0.3-21.1,1-28.4l-1.7,0.2c-4.6,13.2-9.9,38-8.5,51.3c0,0-1.6,2.3-4.6,2.6
		c-6.4,0.6-8.8-6.9-9.8-17.7c-2.8-30.2-0.7-62.1,8-62.9c1.7-0.2,5-0.2,4.9,3.4c-0.4,13.8-4.3,30.3-3,44.4l0.6-0.1
		c3.9-16.3,7.3-27.9,13.8-43.9c0.4-1.3,1.7-1.5,3-1.6c3.8-0.4,10.9,1.7,10.6,6.2c-0.5,8.1-5.1,28-3.3,46.8
		c0.7,7.2,2.9,10.6,6.8,10.2c3.3-0.3,4.3-7.8,4.9-13.6c-2-27.6-0.6-52.5,7.4-53.2c1.7-0.2,5-0.2,4.9,3.4
		c-0.4,13.8-3.1,27.3-1.8,41.4l0.6-0.1c3.9-16.3,7.7-33.6,14.2-49.7c0.4-1.3,1.7-1.5,3-1.6c3.8-0.4,10.6,1.6,10.6,6.2
		c0.2,14.6-5.6,33.7-3.8,52.6c0.7,7.2,2.9,10.6,6.8,10.2c4.7-0.4,6.8-8.2,7.6-12c0,0,3.1,0,3.5,3.5c0.6,6.1-4.5,17.6-14.4,18.5
		c-9.6,0.9-13.3-9.1-14.4-20.5c-0.6-6.1,0.3-21.1,1-28.4L314.7,365.6z"/>
	<path class="st1" d="M355.4,330.7c5.4-0.5,12,3.2,13.3,16.2c1.7,18.2-1.7,35.1-12.9,36.1c-6.1,0.6-8.8-5.2-8.8-5.2
		s-1.8,7.8-0.8,19.3c0.6,6.7,3.6,11.4,10.9,10.7c10.9-1,18-19.6,17.2-29c0,0-0.1-1.6,1.8-1.7c2.3-0.2,4.4,2.4,4.8,6.4
		c1.2,12.3-4.5,33.9-20.3,35.4c-10.9,1-22.1-8.1-23.8-25.8C334.5,369.5,342.9,331.9,355.4,330.7z M351.9,374.8
		c5-0.5,7.7-16.9,6.5-30c-0.6-6-1.6-6.6-2.3-6.5c-0.6,0.1-1.2,0.7-1.9,2.8c-2.7,8-5.6,20-6.1,30.5
		C348.1,371.6,349.1,375.1,351.9,374.8z"/>
	<path class="st1" d="M378,393.1c-0.8-22.1,1.4-68.6,4.1-93.3c0.2-1.2,1.3-1.4,2-1.5c3.4-0.3,9.9,2.9,9.7,5.5
		c-2.3,30.4-4.3,63.2-3.3,94.3c0.1,3.9,0.2,7.7,0.4,11.6c-1.3,2.6-10.9-1.6-11.8-3.9C378,404,378.1,397.7,378,393.1z"/>
	<path class="st1" d="M447.3,382.9c2.4-0.2,6.5,1.8,7,7.8c0.4,3.8-0.4,15.4-7.9,16.1c-4.8,0.5-10.3-5.9-10.7-10.4
		C435.3,392.2,437.8,383.8,447.3,382.9z M442.2,294.2c0.2-1.2,1.2-2.1,1.9-2.2c1.6-0.1,5.8,0.9,8.6,2.8c1.4,1-0.9,2.9,0.2,4
		c1.7,1.7,3.8,2.2,3.4,4.7c-3.1,23.1-5.8,36.9-5.9,61.8c-1.3,2.6-8.9-1.7-9-4.2C440.4,343.5,439.8,309.2,442.2,294.2z"/>
</g>
<g>
</g>
<g>
</g>
<g>
</g>
<g>
</g>
<g>
</g>
<g>
</g>
</svg>
